<svg width="589" height="598" viewBox="0 0 589 598" fill="none" xmlns="http://www.w3.org/2000/svg">
<g opacity="0.7" clip-path="url(#clip0_520_5055)" filter="url(#filter0_f_520_5055)">
<path d="M311.173 563L311.012 278.323V287.86C311.959 287.86 312.977 287.733 313.982 287.514L311.012 274.555L311.069 274.312L311.023 274.208V274.173L311.081 274.231V274.173L311.197 274.254L311.231 274.428L311.451 274.705L317.115 286.392C317.994 285.965 318.826 285.456 319.578 284.866L491.324 499.836C474.435 513.327 456.02 524.933 436.588 534.308L311.335 274.855L375.32 555.763C354.35 560.538 332.767 562.965 311.173 562.977V563ZM247.015 555.856C225.872 551.059 205.238 543.857 185.69 534.447L305.104 286.496C305.971 286.901 306.896 287.225 307.833 287.456L247.015 555.856ZM130.907 500.021C114.075 486.6 98.7237 471.271 85.2679 454.452L310.283 274.474L310.838 274.173L310.815 274.22H310.838L310.746 274.37L310.572 274.717L130.907 500.033V500.021ZM310.387 274.636L300.272 282.751C300.873 283.502 301.567 284.184 302.318 284.785L310.387 274.636ZM536.929 454.244L321.901 282.566C322.491 281.803 322.999 280.971 323.439 280.081L311.751 274.462L311.474 274.243L311.197 274.162V274.185L311.116 274.162H311.069H311.081H311.058L311.035 274.139V274.162H310.942V274.15H311L310.908 274.058L310.884 274.116L310.803 274.173L310.85 274.116H310.792L310.861 274.046L310.827 274.023L310.711 274.081L310.468 274.023L309.809 274.173H22.0116C22.0116 275.595 22.0347 277.017 22.0694 278.404L22 274.012C22 252.522 24.3929 231.043 29.1094 210.177L295.868 270.463L302.966 270.255L50.4838 148.828C59.8359 129.373 71.4074 110.935 84.8748 94.0339L300.122 265.446C299.532 266.197 299.024 267.029 298.608 267.908L303.44 270.231L306.052 270.151L310.827 273.792L310.78 273.688H310.769L310.619 273.364L308.006 270.104L309.035 270.07L304.943 261.585C304.041 262.012 303.197 262.544 302.434 263.134L130.433 48.3488C147.299 34.8467 165.702 23.2289 185.112 13.8191L309.208 270.058L309.983 270.035L246.368 -7.70564C267.326 -12.5146 288.92 -14.9653 310.514 -15L310.977 260.14C310.052 260.14 309.046 260.267 308.052 260.486L310.225 270.035L310.988 270.012V273.422V273.688V273.434L311.046 273.676L311.197 273.688L311.22 273.572L311.451 273.283L313.058 269.954L314.133 269.919L490.851 47.7708C507.693 61.1688 523.068 76.4858 536.536 93.2825L316.341 269.862L319.554 269.769L311.566 273.688H311.809L311.462 273.769L311.254 273.931L311.335 273.954L311.867 273.688H312.907L324.502 271.041C324.479 270.96 324.467 270.867 324.444 270.786L311.936 273.653L319.982 269.746L324.109 269.63C323.924 269.099 323.716 268.567 323.485 268.058L571.1 147.95C580.568 167.463 587.827 188.075 592.671 209.195L324.814 270.694C324.837 271.676 324.849 272.682 324.849 273.676H599.988V273.988C599.988 295.583 597.572 317.165 592.81 338.135L311.959 274.347L571.366 399.461C561.991 418.905 550.396 437.331 536.906 454.232L536.929 454.244ZM312.272 274.15L324.525 276.913C324.733 275.977 324.849 275.029 324.872 274.15H312.283H312.272ZM311.046 274.104L311.092 274.081L311.058 274.104H311.046ZM311.012 274.104V273.988V274.092V274.104ZM311.15 274.046V274.092H311.185L311.15 274.046L311.197 274.023H311.173H311.15V274.046ZM310.931 274.046H310.954L310.919 274L310.942 274.046H310.931ZM310.884 273.988H310.908L310.896 273.977H310.884L310.896 274L310.884 273.988ZM311.116 273.896H311.162L311.173 273.838L311.104 273.861V273.908L311.116 273.896ZM319.716 263.226L314.387 269.908L316.029 269.862L321.774 265.272C321.173 264.521 320.479 263.827 319.728 263.226H319.716ZM50.7613 399.738C41.3283 380.213 34.0918 359.613 29.2597 338.482L297.556 277.202C297.787 278.15 298.111 279.063 298.515 279.942L50.7613 399.738ZM311.012 273.41V270.012L311.786 269.989L311.012 273.41ZM310.399 273.387L306.341 270.151L307.775 270.104L310.399 273.387ZM311.335 273.11L312.04 269.989L312.85 269.966L311.335 273.11ZM316.907 261.504C316.029 261.099 315.115 260.775 314.167 260.544L374.684 -7.92528C395.839 -3.16256 416.473 4.0162 436.021 13.4029L316.907 261.504Z" fill="url(#paint0_radial_520_5055)"/>
</g>
<defs>
<filter id="filter0_f_520_5055" x="-20" y="0" width="618" height="618" filterUnits="userSpaceOnUse" color-interpolation-filters="sRGB">
<feFlood flood-opacity="0" result="BackgroundImageFix"/>
<feBlend mode="normal" in="SourceGraphic" in2="BackgroundImageFix" result="shape"/>
<feGaussianBlur stdDeviation="10" result="effect1_foregroundBlur_520_5055"/>
</filter>
<radialGradient id="paint0_radial_520_5055" cx="0" cy="0" r="1" gradientUnits="userSpaceOnUse" gradientTransform="translate(310.994 274) rotate(90) scale(289 288.994)">
<stop stop-color="#FAFF00" stop-opacity="0.4"/>
<stop offset="0.5" stop-color="#FAFF00" stop-opacity="0.15"/>
<stop offset="1" stop-color="#FAFF00" stop-opacity="0"/>
</radialGradient>
<clipPath id="clip0_520_5055">
<rect width="578" height="578" fill="white" transform="translate(0 20)"/>
</clipPath>
</defs>
</svg>
