<svg width="249" height="157" viewBox="0 0 249 157" fill="none" xmlns="http://www.w3.org/2000/svg">
<g filter="url(#filter0_d_558_1898)">
<path d="M233.19 74.25H192.236C188.617 74.25 185.684 77.1804 185.684 80.7951V125.153C185.684 128.768 188.617 131.698 192.236 131.698H233.19C236.809 131.698 239.743 128.768 239.743 125.153V80.7951C239.743 77.1804 236.809 74.25 233.19 74.25Z" fill="#1C40AB"/>
</g>
<path d="M232.515 74.25H192.915C189.415 74.25 186.578 76.9164 186.578 80.2055V120.568C186.578 123.857 189.415 126.523 192.915 126.523H232.515C236.014 126.523 238.851 123.857 238.851 120.568V80.2055C238.851 76.9164 236.014 74.25 232.515 74.25Z" fill="url(#paint0_linear_558_1898)"/>
<g filter="url(#filter1_d_558_1898)">
<path d="M168.517 69.7889L127.981 84.5428C124.495 85.8114 122.637 89.4955 123.829 92.7714L138.859 134.066C140.051 137.342 143.843 138.97 147.329 137.701L187.865 122.947C191.351 121.678 193.209 117.994 192.017 114.718L176.987 73.4234C175.795 70.1475 172.003 68.5203 168.517 69.7889Z" fill="#C49900"/>
</g>
<path fill-rule="evenodd" clip-rule="evenodd" d="M161.422 95.6862L161.829 91.2545C162.166 87.5761 175.864 70.3318 177.127 73.8025L191.881 114.339C193.145 117.81 191.338 121.683 187.867 122.947L147.331 137.701C145.662 138.308 143.901 138.206 142.381 137.551C143.627 135.497 144.778 132.459 144.862 132.273L157.408 104.294C156.144 100.823 157.95 96.9496 161.421 95.6863L161.422 95.6862Z" fill="#826500"/>
<path d="M200.794 115.448C200.508 115.448 200.249 115.34 200.02 115.125C199.79 114.91 199.676 114.645 199.676 114.329V86.447C199.676 86.1316 199.79 85.866 200.02 85.6508C200.249 85.4358 200.508 85.3281 200.794 85.3281H213.359C215.854 85.3281 218.027 85.7012 219.877 86.447C221.728 87.1928 223.169 88.3258 224.202 89.8463C225.234 91.3665 225.751 93.2741 225.751 95.5691C225.751 97.8639 225.234 99.7501 224.202 101.227C223.169 102.704 221.728 103.787 219.877 104.476C218.027 105.164 215.854 105.508 213.359 105.508H209.271V114.329C209.271 114.645 209.163 114.91 208.948 115.125C208.733 115.34 208.468 115.448 208.152 115.448H200.794ZM209.099 98.5809H213.143C213.975 98.5809 214.685 98.3298 215.273 97.8277C215.862 97.3257 216.155 96.5439 216.155 95.4827C216.155 94.6507 215.926 93.912 215.467 93.2666C215.008 92.6213 214.234 92.2984 213.143 92.2984H209.099V98.5807V98.5809Z" fill="white" stroke="black" stroke-width="3" stroke-miterlimit="22.9256"/>
<g filter="url(#filter2_d_558_1898)">
<path d="M84.6101 63.7369C98.5285 63.7369 108.613 53.3887 108.613 39.1009C108.613 24.7559 98.5285 14.4648 84.6101 14.4648C70.6395 14.4648 60.6074 24.7559 60.6074 39.1009C60.6074 53.3886 70.6395 63.7369 84.6101 63.7369ZM84.6101 49.4348C79.2309 49.4348 75.3712 45.2244 75.3712 39.1009C75.3712 32.9775 79.2309 28.767 84.6101 28.767C89.9898 28.767 93.8494 33.0204 93.8494 39.1009C93.8494 45.2243 89.9898 49.4348 84.6101 49.4348Z" fill="white"/>
<path d="M221.596 63.7357H236.346V0.789062H221.596V63.7357Z" fill="white"/>
<path d="M139.138 15.2584C135.173 15.2584 131.552 16.3999 128.485 18.4411V0H113.906V44.9862C113.906 71.9806 161.621 73.0986 161.621 39.8516C161.621 25.478 152.316 15.2584 139.138 15.2584H139.138ZM137.156 50.3568C131.631 50.3568 127.573 45.8465 127.573 39.8516C127.573 33.8139 131.631 29.3034 137.156 29.3034C142.681 29.3034 146.752 33.8139 146.752 39.8516C146.752 45.8465 142.655 50.3568 137.156 50.3568Z" fill="white"/>
<path d="M192.15 15.2584C188.185 15.2584 184.564 16.3999 181.497 18.4411V0H166.918V44.9862C166.918 71.9806 214.633 73.0986 214.633 39.8516C214.633 25.478 205.328 15.2584 192.15 15.2584H192.15ZM190.168 50.3568C184.643 50.3568 180.585 45.8465 180.585 39.8516C180.585 33.8139 184.643 29.3034 190.168 29.3034C195.693 29.3034 199.763 33.8139 199.763 39.8516C199.763 45.8465 195.666 50.3568 190.168 50.3568Z" fill="white"/>
<path d="M30.399 14.4712C18.1214 14.6431 9 24.5343 9 37.723C9 51.0973 18.1201 60.9603 30.399 60.9603C34.5361 60.9603 38.3559 59.6902 41.5812 57.4919V58.8761C41.5812 64.3701 37.6025 70.3826 32.6592 70.3826C29.0777 70.3826 25.4162 68.7268 24.3986 65.6293H10.1635C12.1324 76.5915 20.645 83.2147 32.7915 83.2147C46.9473 83.2147 55.7499 71.5799 55.7499 57.0494C55.7499 28.0107 54.9105 14.1286 30.399 14.471V14.4712ZM32.8441 47.8572C27.5043 47.8572 23.6982 43.6177 23.6982 37.7231C23.6982 31.8708 27.5442 27.6319 32.8441 27.6319C38.1575 27.6319 41.9646 31.8708 41.9646 37.7231C41.9646 43.6177 38.1449 47.8572 32.8441 47.8572Z" fill="white"/>
</g>
<path d="M169.02 69.662L131.562 83.2954C128.341 84.4677 126.624 87.8719 127.725 90.899L141.614 129.058C142.716 132.085 146.22 133.588 149.441 132.416L186.898 118.783C190.119 117.611 191.836 114.206 190.735 111.179L176.846 73.0206C175.744 69.9935 172.24 68.4898 169.02 69.662Z" fill="#EDD12B"/>
<path d="M164.437 115.168C162.089 116.023 159.884 116.389 157.823 116.266C155.762 116.143 153.935 115.447 152.343 114.175C150.75 112.904 149.5 111.019 148.59 108.521L142.656 92.2168C142.55 91.9243 142.561 91.6417 142.691 91.369C142.82 91.0959 143.011 90.9137 143.264 90.8218L149.439 88.5746C149.716 88.4733 149.986 88.4879 150.248 88.6183C150.51 88.7485 150.694 88.96 150.801 89.2524L156.692 105.437C157.185 106.793 157.873 107.701 158.756 108.162C159.639 108.623 160.674 108.638 161.86 108.206C163.047 107.774 163.824 107.1 164.192 106.183C164.559 105.267 164.496 104.131 164.003 102.776L158.112 86.5913C158.005 86.2989 158.017 86.0164 158.146 85.7437C158.276 85.4707 158.479 85.2837 158.757 85.1828L164.894 82.9492C165.172 82.848 165.442 82.8625 165.704 82.993C165.966 83.1232 166.15 83.3345 166.256 83.6271L172.19 99.9316C173.1 102.429 173.359 104.675 172.969 106.668C172.579 108.661 171.641 110.364 170.153 111.778C168.666 113.193 166.761 114.322 164.437 115.168L164.437 115.168Z" fill="url(#paint1_linear_558_1898)" stroke="black" stroke-width="3" stroke-miterlimit="22.9256"/>
<defs>
<filter id="filter0_d_558_1898" x="176.684" y="74.25" width="72.0586" height="75.4492" filterUnits="userSpaceOnUse" color-interpolation-filters="sRGB">
<feFlood flood-opacity="0" result="BackgroundImageFix"/>
<feColorMatrix in="SourceAlpha" type="matrix" values="0 0 0 0 0 0 0 0 0 0 0 0 0 0 0 0 0 0 127 0" result="hardAlpha"/>
<feOffset dy="9"/>
<feGaussianBlur stdDeviation="4.5"/>
<feComposite in2="hardAlpha" operator="out"/>
<feColorMatrix type="matrix" values="0 0 0 0 0 0 0 0 0 0 0 0 0 0 0 0 0 0 0.33 0"/>
<feBlend mode="normal" in2="BackgroundImageFix" result="effect1_dropShadow_558_1898"/>
<feBlend mode="normal" in="SourceGraphic" in2="effect1_dropShadow_558_1898" result="shape"/>
</filter>
<filter id="filter1_d_558_1898" x="114.469" y="69.3594" width="86.9102" height="86.7734" filterUnits="userSpaceOnUse" color-interpolation-filters="sRGB">
<feFlood flood-opacity="0" result="BackgroundImageFix"/>
<feColorMatrix in="SourceAlpha" type="matrix" values="0 0 0 0 0 0 0 0 0 0 0 0 0 0 0 0 0 0 127 0" result="hardAlpha"/>
<feOffset dy="9"/>
<feGaussianBlur stdDeviation="4.5"/>
<feComposite in2="hardAlpha" operator="out"/>
<feColorMatrix type="matrix" values="0 0 0 0 0 0 0 0 0 0 0 0 0 0 0 0 0 0 0.33 0"/>
<feBlend mode="normal" in2="BackgroundImageFix" result="effect1_dropShadow_558_1898"/>
<feBlend mode="normal" in="SourceGraphic" in2="effect1_dropShadow_558_1898" result="shape"/>
</filter>
<filter id="filter2_d_558_1898" x="0" y="0" width="245.346" height="101.215" filterUnits="userSpaceOnUse" color-interpolation-filters="sRGB">
<feFlood flood-opacity="0" result="BackgroundImageFix"/>
<feColorMatrix in="SourceAlpha" type="matrix" values="0 0 0 0 0 0 0 0 0 0 0 0 0 0 0 0 0 0 127 0" result="hardAlpha"/>
<feOffset dy="9"/>
<feGaussianBlur stdDeviation="4.5"/>
<feComposite in2="hardAlpha" operator="out"/>
<feColorMatrix type="matrix" values="0 0 0 0 0 0 0 0 0 0 0 0 0 0 0 0 0 0 0.66 0"/>
<feBlend mode="normal" in2="BackgroundImageFix" result="effect1_dropShadow_558_1898"/>
<feBlend mode="normal" in="SourceGraphic" in2="effect1_dropShadow_558_1898" result="shape"/>
</filter>
<linearGradient id="paint0_linear_558_1898" x1="212.715" y1="74.25" x2="212.715" y2="126.523" gradientUnits="userSpaceOnUse">
<stop stop-color="#7848FF"/>
<stop offset="1" stop-color="#346DFF"/>
</linearGradient>
<linearGradient id="paint1_linear_558_1898" x1="157.865" y1="82.8828" x2="157.865" y2="116.289" gradientUnits="userSpaceOnUse">
<stop stop-color="#7848FF"/>
<stop offset="1" stop-color="#346DFF"/>
</linearGradient>
</defs>
</svg>
